<?xml version="1.0" encoding="UTF-8"?>
<svg width="513px" height="305px" viewBox="0 0 513 305" version="1.1" xmlns="http://www.w3.org/2000/svg" xmlns:xlink="http://www.w3.org/1999/xlink">
    <!-- Generator: Sketch 52.4 (67378) - http://www.bohemiancoding.com/sketch -->
    <title>bike-white</title>
    <desc>Created with Sketch.</desc>
    <g id="Page-1" stroke="none" stroke-width="1" fill="none" fill-rule="evenodd">
        <g id="bike-white" fill="#FFFFFF">
            <path d="M500.718,152.426 C482.887,117.747 447.125,95.985 408.131,96.086 C397.11,96.095 386.161,97.867 375.699,101.334 L333.075,16.086 L400.131,16.086 C404.549,16.086 408.131,19.668 408.131,24.086 C408.131,28.504 404.549,32.086 400.131,32.086 L368.131,32.086 C363.713,32.086 360.131,35.668 360.131,40.086 C360.131,44.504 363.713,48.086 368.131,48.086 L400.131,48.086 C413.386,48.086 424.131,37.341 424.131,24.086 C424.131,10.831 413.386,0.086 400.131,0.086 L320.131,0.086 C315.713,0.062 312.112,3.624 312.087,8.042 C312.08,9.298 312.369,10.538 312.931,11.662 L323.187,32.086 L181.074,32.086 L173.074,16.086 L216.13,16.086 C220.548,16.086 224.13,12.504 224.13,8.086 C224.13,3.668 220.548,0.086 216.13,0.086 L136.13,0.086 C131.712,0.086 128.13,3.668 128.13,8.086 C128.13,12.504 131.712,16.086 136.13,16.086 L155.186,16.086 L167.186,40.086 L136.562,101.334 C82.007,83.366 23.216,113.025 5.248,167.58 C-12.72,222.135 16.939,280.926 71.494,298.894 C126.049,316.862 184.84,287.203 202.808,232.648 C205.43,224.688 207.079,216.441 207.722,208.086 L256.13,208.086 C256.778,208.082 257.423,207.999 258.05,207.838 L258.218,207.798 C258.402,207.75 258.562,207.646 258.746,207.59 C259.07,207.494 259.388,207.38 259.698,207.246 C259.746,207.246 259.77,207.182 259.81,207.158 C259.85,207.134 260.034,207.046 260.138,206.982 C260.37,206.831 260.595,206.668 260.81,206.494 C261.155,206.252 261.481,205.984 261.786,205.694 L262.098,205.374 C262.218,205.238 262.29,205.086 262.402,204.942 C262.514,204.798 262.778,204.534 262.93,204.294 C262.994,204.182 263.026,204.054 263.082,203.942 C263.138,203.83 263.226,203.766 263.282,203.662 L336.13,57.974 L360.93,107.574 C309.943,133.79 289.862,196.375 316.078,247.361 C342.294,298.348 404.879,318.429 455.865,292.213 C506.852,265.997 526.933,203.412 500.718,152.426 Z M104.13,288.086 C55.529,288.154 16.075,248.81 16.007,200.209 C15.939,151.608 55.283,112.154 103.884,112.086 C112.5,112.074 121.071,113.327 129.323,115.806 L88.97,196.51 C86.995,200.462 88.598,205.267 92.55,207.242 C93.662,207.797 94.887,208.086 96.13,208.086 L191.722,208.086 C187.551,253.364 149.6,288.025 104.13,288.086 Z M109.074,192.086 L144.202,121.838 C171.018,135.581 188.945,162.082 191.722,192.086 L109.074,192.086 Z M207.722,192.086 C204.911,156.014 183.554,123.995 151.33,107.542 L176.13,57.942 L243.186,192.086 L207.722,192.086 Z M256.13,182.198 L189.074,48.086 L323.186,48.086 L256.13,182.198 Z M433.569,284.366 C425.317,286.845 416.746,288.098 408.13,288.086 C359.564,288.126 320.162,248.788 320.122,200.222 C320.095,167.16 338.615,136.877 368.058,121.838 L408.97,203.662 C410.945,207.616 415.752,209.221 419.706,207.246 C423.66,205.271 425.265,200.464 423.29,196.51 L382.938,115.806 C429.485,101.825 478.552,128.224 492.533,174.771 C506.515,221.317 480.116,270.385 433.569,284.366 Z" id="Shape" fill-rule="nonzero"></path>
            <path d="M104.13,216.086 L96.13,216.086 C91.712,216.086 88.13,219.668 88.13,224.086 C88.13,228.504 91.712,232.086 96.13,232.086 L104.13,232.086 C108.548,232.086 112.13,228.504 112.13,224.086 C112.13,219.668 108.548,216.086 104.13,216.086 Z" id="Path"></path>
            <path d="M136.13,216.086 L128.13,216.086 C123.712,216.086 120.13,219.668 120.13,224.086 C120.13,228.504 123.712,232.086 128.13,232.086 L136.13,232.086 C140.548,232.086 144.13,228.504 144.13,224.086 C144.13,219.668 140.548,216.086 136.13,216.086 Z" id="Path"></path>
            <path d="M168.13,216.086 L160.13,216.086 C155.712,216.086 152.13,219.668 152.13,224.086 C152.13,228.504 155.712,232.086 160.13,232.086 L168.13,232.086 C172.548,232.086 176.13,228.504 176.13,224.086 C176.13,219.668 172.548,216.086 168.13,216.086 Z" id="Path"></path>
        </g>
    </g>
</svg>