<?xml version="1.0" encoding="UTF-8"?>
<svg width="468px" height="362px" viewBox="0 0 468 362" version="1.1" xmlns="http://www.w3.org/2000/svg" xmlns:xlink="http://www.w3.org/1999/xlink">
    <!-- Generator: Sketch 52.4 (67378) - http://www.bohemiancoding.com/sketch -->
    <title>car-white</title>
    <desc>Created with Sketch.</desc>
    <g id="Page-1" stroke="none" stroke-width="1" fill="none" fill-rule="evenodd">
        <g id="car-white" fill="#FFFFFF">
            <path d="M450.1,134.5 L439.9,123.7 L404.1,27.2 C398,10.9 382.4,0.1 365,0 L109.3,0 C91.9,0 76.3,10.9 70.2,27.2 L34.9,122.5 L20.2,136.1 C7.4,147 0,163 0,179.8 L0,320.4 C0.1,343.4 18.8,362 41.8,362 L68.2,362 C91.2,362 109.9,343.4 110,320.4 L110,300 L358,300 L358,320.4 C358.1,343.4 376.8,362 399.8,362 L426.2,362 C449.2,362 467.9,343.4 468,320.4 L468,176.1 C467.9,160.4 461.5,145.4 450.1,134.5 Z M89,34 C92.2,25.5 100.3,20 109.3,20 L365.1,20 C374.1,20 382.2,25.6 385.4,34 L416.6,118 L393.3,118 C387.8,80.5 352.9,54.6 315.4,60.2 C285.5,64.6 262,88.1 257.6,118 L57.8,118 L89,34 Z M372.9,118 L277.8,118 C283.3,91.7 309.1,74.9 335.4,80.4 C354.2,84.4 368.9,99.1 372.9,118 Z M90,320.4 C89.9,332.4 80.2,342 68.2,342 L41.8,342 C29.8,342 20.1,332.4 20,320.4 L20,294.2 C26,298.1 33.9,300 41.8,300 L90,300 L90,320.4 Z M448,320.4 C447.9,332.4 438.2,342 426.2,342 L399.8,342 C387.8,342 378.1,332.3 378,320.4 L378,300 L426.2,300 C434.1,300 442,298.1 448,294.2 L448,320.4 Z M426.2,280 L41.8,280 C29.9,280.1 20.1,270.6 20,258.6 L20,179.8 C20,168.8 24.9,158.3 33.3,151.2 C33.4,151.1 33.6,150.9 33.7,150.8 L47.3,138 L426,138 L435.6,148.3 C435.7,148.5 436,148.6 436.1,148.8 C443.6,155.9 447.9,165.8 447.9,176.1 L447.9,258.6 L448,258.6 C447.9,270.5 438.1,280.1 426.2,280 Z" id="Shape" fill-rule="nonzero"></path>
            <path d="M132,178 L57,178 C51.5,178 47,182.5 47,188 L47,240 C47,245.5 51.5,250 57,250 L132,250 C137.5,250 142,245.5 142,240 L142,188 C142,182.5 137.5,178 132,178 Z M122,230 L67,230 L67,198 L122,198 L122,230 Z" id="Shape" fill-rule="nonzero"></path>
            <path d="M411,178 L336,178 C330.5,178 326,182.5 326,188 L326,240 C326,245.5 330.5,250 336,250 L411,250 C416.5,250 421,245.5 421,240 L421,188 C421,182.5 416.5,178 411,178 Z M401,230 L346,230 L346,198 L401,198 L401,230 Z" id="Shape" fill-rule="nonzero"></path>
            <path d="M282.3,220 L185.7,220 C180.2,220 175.7,224.5 175.7,230 C175.7,235.5 180.2,240 185.7,240 L282.3,240 C287.8,240 292.3,235.5 292.3,230 C292.3,224.5 287.8,220 282.3,220 Z" id="Path"></path>
            <path d="M282.3,189 L185.7,189 C180.2,189 175.7,193.5 175.7,199 C175.7,204.5 180.2,209 185.7,209 L282.3,209 C287.8,209 292.3,204.5 292.3,199 C292.3,193.5 287.8,189 282.3,189 Z" id="Path"></path>
        </g>
    </g>
</svg>