<?xml version="1.0" encoding="UTF-8"?>
<svg width="512px" height="328px" viewBox="0 0 512 328" version="1.1" xmlns="http://www.w3.org/2000/svg" xmlns:xlink="http://www.w3.org/1999/xlink">
    <!-- Generator: Sketch 52.4 (67378) - http://www.bohemiancoding.com/sketch -->
    <title>drone-white</title>
    <desc>Created with Sketch.</desc>
    <g id="Page-1" stroke="none" stroke-width="1" fill="none" fill-rule="evenodd">
        <g id="drone-white" fill="#FFFFFF">
            <path d="M504.485,21.383 L443.673,21.383 L443.673,7.732 C443.673,3.581 440.308,0.217 436.158,0.217 C432.008,0.217 428.643,3.581 428.643,7.732 L428.643,21.383 L367.831,21.383 C363.681,21.383 360.316,24.747 360.316,28.898 C360.316,33.049 363.681,36.413 367.831,36.413 L428.643,36.413 L428.643,59.338 L410.197,59.338 C406.047,59.338 402.682,62.702 402.682,66.853 L402.682,74.627 L200.002,74.627 C195.852,74.627 192.487,77.991 192.487,82.142 C192.487,86.293 195.852,89.657 200.002,89.657 L402.684,89.657 L402.684,104.897 L365.438,104.897 C342.35,104.897 321.441,119.44 313.408,141.085 C307.235,157.718 291.168,168.893 273.426,168.893 L238.573,168.893 C220.831,168.893 204.764,157.718 198.591,141.085 C190.558,119.44 169.649,104.897 146.561,104.897 L109.316,104.897 L109.316,89.657 L169.943,89.657 C174.093,89.657 177.458,86.293 177.458,82.142 C177.458,77.991 174.093,74.627 169.943,74.627 L109.316,74.627 L109.316,66.853 C109.316,62.702 105.952,59.338 101.801,59.338 L83.356,59.338 L83.356,36.413 L144.168,36.413 C148.318,36.413 151.683,33.049 151.683,28.898 C151.683,24.747 148.318,21.383 144.168,21.383 L83.356,21.383 L83.356,7.732 C83.356,3.581 79.992,0.217 75.841,0.217 C71.69,0.217 68.326,3.581 68.326,7.732 L68.326,21.383 L7.515,21.383 C3.365,21.383 0,24.747 0,28.898 C0,33.049 3.365,36.413 7.515,36.413 L68.327,36.413 L68.327,59.338 L49.881,59.338 C45.731,59.338 42.366,62.702 42.366,66.853 L42.366,115.327 C42.366,133.785 57.383,148.801 75.841,148.801 C92.739,148.801 106.743,136.214 108.992,119.925 L146.561,119.925 C163.397,119.925 178.644,130.53 184.501,146.312 C185.279,148.408 186.173,150.439 187.174,152.4 C177.263,157.101 160.09,166.805 142.873,183.901 C119.934,206.677 92.749,247.295 90.802,312.754 L73.814,312.754 C69.664,312.754 66.299,316.118 66.299,320.269 C66.299,324.42 69.664,327.784 73.814,327.784 L98.206,327.784 C102.356,327.784 105.721,324.42 105.721,320.269 C105.721,268.605 121.614,226.481 152.959,195.068 C170.249,177.741 187.749,168.606 195.871,164.959 C206.615,176.759 222.058,183.92 238.574,183.92 L248.486,183.92 L248.486,208.756 L225.483,208.756 C210.29,208.756 197.929,221.117 197.929,236.31 L197.929,274.809 C197.929,290.002 210.289,302.363 225.483,302.363 L241.56,302.363 C245.71,302.363 249.075,298.999 249.075,294.848 C249.075,290.697 245.71,287.333 241.56,287.333 L225.483,287.333 C218.577,287.333 212.958,281.715 212.958,274.808 L212.958,236.309 C212.958,229.403 218.576,223.784 225.483,223.784 L286.518,223.784 C293.424,223.784 299.043,229.402 299.043,236.309 L299.043,274.808 C299.043,281.714 293.425,287.333 286.518,287.333 L271.618,287.333 C267.468,287.333 264.103,290.697 264.103,294.848 C264.103,298.999 267.468,302.363 271.618,302.363 L286.518,302.363 C301.711,302.363 314.072,290.002 314.072,274.809 L314.072,236.31 C314.072,221.117 301.711,208.756 286.518,208.756 L263.515,208.756 L263.515,183.92 L273.427,183.92 C289.943,183.92 305.385,176.759 316.129,164.959 C324.259,168.61 341.755,177.744 359.041,195.068 C390.386,226.481 406.279,268.604 406.279,320.269 C406.279,324.42 409.643,327.784 413.794,327.784 L438.186,327.784 C442.336,327.784 445.701,324.42 445.701,320.269 C445.701,316.118 442.336,312.754 438.186,312.754 L421.198,312.754 C419.251,247.295 392.066,206.677 369.127,183.901 C351.909,166.805 334.737,157.101 324.826,152.4 C325.827,150.439 326.722,148.408 327.499,146.312 C333.357,130.529 348.604,119.925 365.439,119.925 L403.008,119.925 C405.257,136.214 419.262,148.801 436.159,148.801 C454.617,148.801 469.634,133.784 469.634,115.327 L469.634,66.853 C469.634,62.702 466.269,59.338 462.119,59.338 L443.674,59.338 L443.674,36.413 L504.486,36.413 C508.636,36.413 512.001,33.049 512.001,28.898 C512,24.747 508.635,21.383 504.485,21.383 Z M94.287,115.325 C94.287,125.495 86.013,133.77 75.841,133.77 C65.67,133.77 57.396,125.495 57.396,115.325 L57.396,74.366 L94.287,74.366 L94.287,115.325 Z M454.604,115.325 C454.604,125.495 446.33,133.77 436.159,133.77 C425.988,133.77 417.713,125.495 417.713,115.325 L417.713,74.366 L454.604,74.366 L454.604,115.325 Z" id="Shape" fill-rule="nonzero"></path>
            <path d="M273.904,253.368 C273.904,249.217 270.539,245.853 266.389,245.853 L246.787,245.853 C242.637,245.853 239.272,249.217 239.272,253.368 C239.272,257.519 242.637,260.883 246.787,260.883 L266.389,260.883 C270.54,260.883 273.904,257.519 273.904,253.368 Z" id="Path"></path>
        </g>
    </g>
</svg>