<?xml version="1.0" encoding="UTF-8"?>
<svg width="512px" height="427px" viewBox="0 0 512 427" version="1.1" xmlns="http://www.w3.org/2000/svg" xmlns:xlink="http://www.w3.org/1999/xlink">
    <!-- Generator: Sketch 52.4 (67378) - http://www.bohemiancoding.com/sketch -->
    <title>mini-van-white</title>
    <desc>Created with Sketch.</desc>
    <g id="Page-1" stroke="none" stroke-width="1" fill="none" fill-rule="evenodd">
        <g id="mini-van-white" fill="#FFFFFF" fill-rule="nonzero">
            <path d="M442.658133,62.8224 C436.692721,45.6572481 420.518855,34.1465496 402.346667,34.1333333 L365.064533,34.1333333 L361.378133,19.3877333 C358.527321,7.99102319 348.285456,-0.002626816 336.5376,3.78956124e-15 L311.995733,3.78956124e-15 C300.247877,-0.002626816 290.006013,7.99102319 287.1552,19.3877333 L283.4688,34.1333333 L25.6,34.1333333 C11.4615104,34.1333333 0,45.5948437 0,59.7333333 L0,349.866667 C0,364.005156 11.4615104,375.466667 25.6,375.466667 L36.3776,375.466667 C44.1166218,405.605503 71.283414,426.677764 102.4,426.677764 C133.516586,426.677764 160.683378,405.605503 168.4224,375.466667 L317.9776,375.466667 C325.716622,405.605503 352.883414,426.677764 384,426.677764 C415.116586,426.677764 442.283378,405.605503 450.0224,375.466667 L486.4,375.466667 C500.538489,375.466667 512,364.005156 512,349.866667 L512,276.053333 C511.999049,267.494287 510.571489,258.995255 507.776,250.9056 L442.658133,62.8224 Z M51.2,213.333333 L51.2,128 C51.2,123.287171 55.0205035,119.466667 59.7333333,119.466667 L170.666667,119.466667 L170.666667,221.866667 L59.7333333,221.866667 C55.0205035,221.866667 51.2,218.046163 51.2,213.333333 Z M397.576533,119.466667 C401.181256,119.469775 404.395215,121.737647 405.6064,125.1328 L436.087467,210.466133 C437.019762,213.079507 436.623223,215.982996 435.024306,218.250673 C433.42539,220.518351 430.823755,221.86705 428.049067,221.866667 L349.866667,221.866667 L349.866667,119.466667 L397.576533,119.466667 Z M332.8,221.866667 L315.733333,221.866667 L315.733333,119.466667 L332.8,119.466667 L332.8,221.866667 Z M298.666667,221.866667 L187.733333,221.866667 L187.733333,119.466667 L298.666667,119.466667 L298.666667,221.866667 Z M59.7333333,238.933333 L485.546667,238.933333 L491.460267,256 L17.0666667,256 L17.0666667,238.933333 L59.7333333,238.933333 Z M479.658667,221.866667 L452.096,221.866667 C454.091186,216.329859 454.112288,210.273777 452.155733,204.7232 L421.674667,119.389867 C418.037192,109.204828 408.391625,102.404431 397.576533,102.4 L59.7333333,102.4 C45.5948437,102.4 34.1333333,113.861511 34.1333333,128 L34.1333333,213.333333 C34.1616165,216.246952 34.6927979,219.133807 35.7034667,221.866667 L17.0666667,221.866667 L17.0666667,85.3333333 L110.933333,85.3333333 C125.071823,85.3333333 136.533333,73.8718229 136.533333,59.7333333 L136.533333,51.2 L315.733333,51.2 L315.733333,59.7333333 C315.733333,73.8718229 327.194844,85.3333333 341.333333,85.3333333 L432.392533,85.3333333 L479.658667,221.866667 Z M426.4704,68.2666667 L341.333333,68.2666667 C336.620504,68.2666667 332.8,64.4461632 332.8,59.7333333 L332.8,51.2 L402.346667,51.2 C413.191042,51.2051592 422.855609,58.0424904 426.4704,68.2666667 Z M303.709867,23.5349333 C304.658441,19.7317117 308.076004,17.06383 311.995733,17.0666667 L336.5376,17.0666667 C340.457329,17.06383 343.874893,19.7317117 344.823467,23.5349333 L347.477333,34.1333333 L301.056,34.1333333 L303.709867,23.5349333 Z M25.6,51.2 L119.466667,51.2 L119.466667,59.7333333 C119.466667,64.4461632 115.646163,68.2666667 110.933333,68.2666667 L17.0666667,68.2666667 L17.0666667,59.7333333 C17.0666667,55.0205035 20.8871701,51.2 25.6,51.2 Z M102.4,409.6 C81.6915331,409.6 63.0221552,397.12552 55.0973679,377.993392 C47.1725807,358.861263 51.5530354,336.83923 66.1961328,322.196133 C80.8392302,307.553035 102.861263,303.172581 121.993392,311.097368 C141.12552,319.022155 153.6,337.691533 153.6,358.4 C153.571777,386.665281 130.665281,409.571777 102.4,409.6 Z M384,409.6 C363.291533,409.6 344.622155,397.12552 336.697368,377.993392 C328.772581,358.861263 333.153035,336.83923 347.796133,322.196133 C362.43923,307.553035 384.461263,303.172581 403.593392,311.097368 C422.72552,319.022155 435.2,337.691533 435.2,358.4 C435.171777,386.665281 412.265281,409.571777 384,409.6 Z M486.4,358.4 L452.266667,358.4 C452.266667,320.697361 421.702639,290.133333 384,290.133333 C346.297361,290.133333 315.733333,320.697361 315.733333,358.4 L170.666667,358.4 C170.666667,320.697361 140.102639,290.133333 102.4,290.133333 C64.6973611,290.133333 34.1333333,320.697361 34.1333333,358.4 L25.6,358.4 C20.8871701,358.4 17.0666667,354.579496 17.0666667,349.866667 L17.0666667,273.066667 L494.685867,273.066667 C494.737067,274.065067 494.933333,275.0464 494.933333,276.053333 L494.933333,290.133333 L486.4,290.133333 C481.687171,290.133333 477.866667,293.953837 477.866667,298.666667 C477.866667,303.379496 481.687171,307.2 486.4,307.2 L494.933333,307.2 L494.933333,324.266667 L486.4,324.266667 C481.687171,324.266667 477.866667,328.087171 477.866667,332.8 C477.866667,337.512829 481.687171,341.333333 486.4,341.333333 L494.933333,341.333333 L494.933333,349.866667 C494.933333,354.579496 491.112829,358.4 486.4,358.4 Z" id="Shape"></path>
            <path d="M384,332.8 C369.861511,332.8 358.4,344.261511 358.4,358.4 C358.4,372.538489 369.861511,384 384,384 C398.138489,384 409.6,372.538489 409.6,358.4 C409.6,344.261511 398.138489,332.8 384,332.8 Z M384,366.933333 C379.287171,366.933333 375.466667,363.112829 375.466667,358.4 C375.466667,353.687171 379.287171,349.866667 384,349.866667 C388.712829,349.866667 392.533333,353.687171 392.533333,358.4 C392.533333,363.112829 388.712829,366.933333 384,366.933333 Z" id="Shape"></path>
            <path d="M102.4,332.8 C88.2615108,332.8 76.8,344.261511 76.8,358.4 C76.8,372.538489 88.2615108,384 102.4,384 C116.538489,384 128,372.538489 128,358.4 C128,344.261511 116.538489,332.8 102.4,332.8 Z M102.4,366.933333 C97.6871706,366.933333 93.8666667,363.112829 93.8666667,358.4 C93.8666667,353.687171 97.6871706,349.866667 102.4,349.866667 C107.112829,349.866667 110.933333,353.687171 110.933333,358.4 C110.933333,363.112829 107.112829,366.933333 102.4,366.933333 Z" id="Shape"></path>
        </g>
    </g>
</svg>