<?xml version="1.0" encoding="UTF-8"?>
<svg width="512px" height="484px" viewBox="0 0 512 484" version="1.1" xmlns="http://www.w3.org/2000/svg" xmlns:xlink="http://www.w3.org/1999/xlink">
    <!-- Generator: Sketch 52.4 (67378) - http://www.bohemiancoding.com/sketch -->
    <title>motorcycle-white</title>
    <desc>Created with Sketch.</desc>
    <g id="Page-1" stroke="none" stroke-width="1" fill="none" fill-rule="evenodd">
        <g id="motorcycle-white" fill="#FFFFFF" fill-rule="nonzero">
            <path d="M484.827,143.974 L398.002,143.974 C383.019,143.974 370.829,156.17 370.829,171.162 L370.829,271.096 L338.353,271.096 C340.158,264.535 340.827,256.796 340.388,247.79 L340.388,247.789 C339.683,209.73 332.777,177.654 319.86,152.452 C309.83,132.885 298.125,121.154 288.081,114.141 C299.87,102.02 306.686,84.777 306.686,64.89 C306.686,29.109 278.143,2.84217094e-14 243.06,2.84217094e-14 C207.977,2.84217094e-14 179.434,29.109 179.434,64.89 C179.434,69.033 182.792,72.39 186.934,72.39 L192.03,72.39 C191.561,75.22 191.311,78.104 191.311,81.033 C191.311,106.249 209.329,127.324 233.151,132.047 C230.654,141.319 229.413,152.252 229.418,164.672 L210.712,180.761 L165.197,184.442 L112.694,167.086 C107.882,165.486 102.428,163.678 97.696,167.09 C93.033,170.455 93.033,176.346 93.033,178.281 L93.033,217.316 C93.033,221.459 96.391,224.816 100.533,224.816 L109.462,224.816 L95.767,272.14 C94.616,276.118 96.908,280.278 100.887,281.429 C104.868,282.586 109.025,280.288 110.177,276.31 L125.079,224.816 L146.401,224.816 C119.881,305.688 135.013,359.67 158.272,414.301 L144.79,414.301 L88.637,351.515 L100.511,310.495 C101.663,306.516 99.371,302.357 95.392,301.206 C91.413,300.055 87.254,302.347 86.102,306.325 L74.745,345.562 C39.619,344.976 8.199,369.194 0.192,404.037 C-0.735,408.073 1.784,412.097 5.819,413.025 L16.466,415.475 C13.746,443.727 32.351,470.382 60.725,476.913 C65.034,477.906 69.38,478.396 73.696,478.396 C84.34,478.396 94.797,475.412 104.046,469.615 C114.901,462.813 122.989,452.813 127.366,440.995 L135.767,442.928 C138.27,443.507 140.644,443.8 143.016,442.523 C145.223,441.335 146.69,439.19 147.24,436.769 C147.768,434.314 148.17,431.819 148.449,429.301 L305.307,429.301 C310.323,460.488 336.858,483.997 368.549,483.997 C400.24,483.997 426.776,460.488 431.792,429.301 L437.516,429.301 C437.516,429.301 438.652,429.314 438.911,429.314 C441.056,429.314 444.154,429.076 446.698,426.488 C447.971,425.193 449.465,422.876 449.35,419.195 C449.139,412.152 448.082,405.347 446.278,398.879 C452.252,362.611 446.504,340.522 437.983,323.235 C443.37,319.704 446.942,313.62 446.942,306.708 L446.942,286.095 L484.825,286.095 C499.808,286.095 511.998,273.899 511.998,258.907 L511.998,171.161 C512,156.17 499.811,143.974 484.827,143.974 Z M96.081,456.907 C86.48,462.924 75.12,464.837 64.092,462.298 L64.091,462.298 C43.793,457.626 30.251,439.013 31.238,418.887 L112.591,437.611 C109.225,445.536 103.53,452.239 96.081,456.907 Z M133.609,427.041 L16.944,400.195 C25.947,375.541 50.175,359.221 76.658,360.625 L133.809,424.526 C133.759,425.369 133.693,426.207 133.609,427.041 Z M246.894,296.346 C244.717,302.088 244.717,309.167 244.717,318.966 L244.717,347.268 L217.254,347.268 L217.254,308.44 C217.254,264.542 241.212,256.719 251.964,255.428 L325.493,255.428 C325.197,265.391 322.949,272.473 318.681,276.968 C313.707,282.206 305.196,284.758 292.66,284.77 L265.739,284.798 C256.139,284.799 249.799,288.683 246.894,296.346 Z M244.717,362.267 L244.717,380.175 C244.649,380.175 244.579,380.175 244.507,380.175 L191.234,380.175 C191.833,374.621 193.563,370.323 196.404,367.349 C200.63,362.927 206.582,362.267 209.754,362.267 L244.717,362.267 Z M325.162,240.429 L256.955,240.429 C254.216,231.81 251.774,222.372 249.766,212.672 L270.503,199.212 C281.823,191.861 287.712,181.474 286.66,170.713 C285.728,161.174 279.243,152.653 270.139,149.006 C261.825,145.676 252.876,146.722 244.967,151.779 C245.619,144.605 246.833,138.201 248.589,132.765 C251.786,132.435 254.961,131.81 258.079,130.893 C264.426,129.419 270.291,127.07 275.586,123.955 C290.031,132.585 321.801,160.577 325.162,240.429 Z M194.983,57.391 C198.52,33.427 218.732,15.001 243.06,15.001 C269.872,15.001 291.686,37.382 291.686,64.891 C291.686,87.265 280.957,105.298 263.657,113.234 L263.657,73.771 C263.657,66.938 261.042,58.556 248.588,57.422 C248.362,57.401 248.135,57.391 247.908,57.391 L194.983,57.391 Z M206.312,81.034 C206.312,78.074 206.649,75.183 207.312,72.391 L247.54,72.391 C248.003,72.441 248.341,72.495 248.583,72.544 C248.622,72.822 248.656,73.222 248.656,73.771 L248.656,117.647 C246.869,117.91 245.071,118.043 243.274,118.044 C243.257,118.044 243.24,118.044 243.224,118.044 C222.868,118.025 206.312,101.43 206.312,81.034 Z M196.589,196.954 L214.353,195.517 C215.936,195.39 217.437,194.763 218.642,193.728 L250.702,166.153 L250.707,166.148 C253.807,163.477 257.116,162.107 260.338,162.107 C261.772,162.107 263.189,162.379 264.562,162.929 C268.525,164.516 271.339,168.144 271.733,172.17 C272.228,177.237 268.89,182.373 262.337,186.629 L226.612,209.817 L196.591,209.817 L196.591,196.954 L196.589,196.954 Z M164.893,199.518 L181.589,198.168 L181.589,209.819 L162.188,209.819 C159.673,209.819 159.06,207.729 158.988,205.976 C158.947,204.982 159.041,199.998 164.893,199.518 Z M147.142,194.34 C144.883,198.044 143.828,202.377 144.001,206.59 C144.046,207.681 144.185,208.732 144.379,209.756 C144.379,209.777 144.367,209.798 144.371,209.818 L108.035,209.818 L108.035,181.345 L147.171,194.282 C147.159,194.302 147.153,194.321 147.142,194.34 Z M162.23,224.818 L228.831,224.818 C230.28,224.818 231.699,224.398 232.914,223.609 L236.309,221.405 C237.942,228.623 239.802,235.647 241.828,242.281 C226.532,246.796 202.253,261.387 202.253,308.439 L202.253,348.02 C196.991,349.082 190.766,351.536 185.559,356.985 C180.07,362.729 176.935,370.512 176.183,380.174 L161.053,380.174 C145.807,336.236 140.009,289.48 162.23,224.818 Z M174.592,414.276 C171.82,407.901 169.148,401.55 166.632,395.175 L244.506,395.175 C254.599,395.175 259.716,390.58 259.716,381.519 L259.716,354.767 L259.716,326.465 L318.915,326.465 C323.058,326.465 326.415,323.108 326.415,318.965 C326.415,314.822 323.058,311.465 318.915,311.465 L259.77,311.465 C259.866,307.205 260.139,303.721 260.92,301.663 C261.299,300.662 261.627,299.798 265.746,299.798 L292.674,299.77 C309.539,299.754 321.604,295.674 329.559,287.296 C329.927,286.908 330.275,286.501 330.624,286.096 L378.33,286.096 L431.945,286.096 L431.945,306.709 C431.945,309.287 429.772,311.465 427.2,311.465 L352.535,311.465 C348.392,311.465 345.035,314.822 345.035,318.965 C345.035,323.108 348.392,326.465 352.535,326.465 L422.793,326.465 C428.721,337.468 434.053,351.159 433.736,372.79 C418.898,352.179 394.877,338.926 367.615,338.926 C345.721,338.926 325.177,347.514 309.766,363.109 C296.091,376.946 287.878,394.905 286.188,414.301 L174.592,414.276 Z M368.55,468.999 C345.104,468.999 325.33,452.106 320.546,429.303 L416.554,429.303 C411.769,452.104 391.995,468.999 368.55,468.999 Z M425.074,414.303 L312.028,414.303 L301.253,414.303 C304.935,380.39 333.291,353.926 367.615,353.926 C397.75,353.926 423.057,373.797 431.438,401.614 C431.465,401.702 431.492,401.79 431.522,401.877 C432.707,405.868 433.544,410.022 433.997,414.303 L425.074,414.303 Z M497,258.908 C497,265.629 491.539,271.096 484.827,271.096 L385.829,271.096 L385.829,232.365 L497,232.365 L497,258.908 Z M497,217.365 L385.829,217.365 L385.829,201.414 L497,201.414 L497,217.365 Z M497,186.414 L385.829,186.414 L385.829,171.162 C385.829,164.441 391.29,158.974 398.002,158.974 L484.827,158.974 C491.539,158.974 497,164.442 497,171.162 L497,186.414 Z" id="Shape"></path>
        </g>
    </g>
</svg>