<?xml version="1.0" encoding="UTF-8"?>
<svg width="480px" height="441px" viewBox="0 0 480 441" version="1.1" xmlns="http://www.w3.org/2000/svg" xmlns:xlink="http://www.w3.org/1999/xlink">
    <!-- Generator: Sketch 52.4 (67378) - http://www.bohemiancoding.com/sketch -->
    <title>tricycle</title>
    <desc>Created with Sketch.</desc>
    <g id="Page-1" stroke="none" stroke-width="1" fill="none" fill-rule="evenodd">
        <g id="tricycle" fill="#FFFFFF">
            <circle id="Oval" cx="64" cy="392" r="16"></circle>
            <circle id="Oval" cx="368" cy="392" r="16"></circle>
            <path d="M472,88 L160,88 L160,64 L232,64 C236.418278,64 240,60.418278 240,56 L240,8 C240,3.581722 236.418278,0 232,0 L152,0 C147.581722,0 144,3.581722 144,8 L144,88 L136,88 C135.519503,88.0012652 135.040145,88.0467908 134.568,88.136 L46.568,104.136 C42.7670195,104.827543 40.0032805,108.136624 40,112 L40,160 C40,164.418278 43.581722,168 48,168 L64,168 L64,240 L40,240 C35.581722,240 32,243.581722 32,248 L32,280 C32,284.418278 35.581722,288 40,288 L64,288 L64,304 C28.6702247,304.039679 0.0396790764,332.670225 0,368 C1.77635684e-15,372.418278 3.581722,376 8,376 L18.768,376 C11.7013409,395.897311 18.4671215,418.075929 35.4366496,430.640791 C52.4061776,443.205654 75.5938224,443.205654 92.5633504,430.640791 C109.532878,418.075929 116.298659,395.897311 109.232,376 L128,376 L128,400 C128,404.418278 131.581722,408 136,408 L322.8,408 C329.552039,427.176417 347.669604,440.005026 368,440.005026 C388.330396,440.005026 406.447961,427.176417 413.2,408 L472,408 C476.418278,408 480,404.418278 480,400 L480,360 C480,355.581722 476.418278,352 472,352 L448,352 L448,168 L472,168 C476.418278,168 480,164.418278 480,160 L480,96 C480,91.581722 476.418278,88 472,88 Z M224,48 L160,48 L160,16 L224,16 L224,48 Z M80,168 L96,168 L96,272 L80,272 L80,168 Z M48,256 L64,256 L64,272 L48,272 L48,256 Z M80,288 L104,288 C108.418278,288 112,284.418278 112,280 L112,168 L128,168 L128,304 L80,304 L80,288 Z M224,168 L224,200 L200,200 C195.581722,200 192,203.581722 192,208 L192,296 L144,296 L144,168 L224,168 Z M144,360 L144,344 L224,344 L224,360 L144,360 Z M224,328 L144,328 L144,312 L200,312 C204.418278,312 208,308.418278 208,304 L208,216 L224,216 L224,328 Z M64,320 L128,320 L128,360 L16.664,360 C20.5986626,336.919683 40.586719,320.02932 64,320 Z M96,392 C96,409.673112 81.673112,424 64,424 C46.326888,424 32,409.673112 32,392 C31.9967939,386.37279 33.5023975,380.847639 36.36,376 L91.64,376 C94.4976025,380.847639 96.0032061,386.37279 96,392 Z M144,376 L288,376 L288,392 L144,392 L144,376 Z M368,424 C350.326888,424 336,409.673112 336,392 C336,374.326888 350.326888,360 368,360 C385.673112,360 400,374.326888 400,392 C400,409.673112 385.673112,424 368,424 Z M368,344 C341.501299,344.026459 320.026459,365.501299 320,392 L304,392 L304,340.28 L346.4,312 L432,312 L432,328 L400,328 L400,344 L432,344 L432,392 L416,392 C415.973541,365.501299 394.498701,344.026459 368,344 Z M432,264 L416,264 L416,216 L432,216 L432,264 Z M432,280 L432,296 L416,296 L416,280 L432,280 Z M400,296 L352,296 L352,280 L400,280 L400,296 Z M464,368 L464,392 L448,392 L448,368 L464,368 Z M432,200 L408,200 C403.581722,200 400,203.581722 400,208 L400,264 L344,264 C339.581722,264 336,267.581722 336,272 L336,299.72 L291.56,329.32 C289.328353,330.808908 287.991559,333.317273 288,336 L288,360 L240,360 L240,168 L432,168 L432,200 Z M56,152 L56,118.68 L136.72,104 L464,104 L464,120 L392,120 L392,136 L464,136 L464,152 L56,152 Z" id="Shape" fill-rule="nonzero"></path>
            <rect id="Rectangle" x="360" y="120" width="16" height="16"></rect>
            <rect id="Rectangle" x="192" y="120" width="96" height="16"></rect>
            <rect id="Rectangle" x="256" y="40" width="80" height="16"></rect>
            <rect id="Rectangle" x="272" y="8" width="80" height="16"></rect>
        </g>
    </g>
</svg>