<?xml version="1.0" encoding="UTF-8"?>
<svg width="496px" height="240px" viewBox="0 0 496 240" version="1.1" xmlns="http://www.w3.org/2000/svg" xmlns:xlink="http://www.w3.org/1999/xlink">
    <!-- Generator: Sketch 52.4 (67378) - http://www.bohemiancoding.com/sketch -->
    <title>truck-white</title>
    <desc>Created with Sketch.</desc>
    <g id="Page-1" stroke="none" stroke-width="1" fill="none" fill-rule="evenodd">
        <g id="truck-white" fill="#FFFFFF">
            <path d="M136,16 L88,16 C65.92,16.026 48.026,33.92 48,56 L48,83.056 L22.112,96 C8.525,102.736 -0.05,116.611 3.55271368e-15,131.776 L3.55271368e-15,216 C3.55271368e-15,220.418 3.582,224 8,224 L56,224 C60.418,224 64,220.418 64,216 L64,200 C64.026,177.92 81.92,160.026 104,160 L136,160 C140.418,160 144,156.418 144,152 L144,24 C144,19.582 140.418,16 136,16 Z M64,56 C64,42.745 74.745,32 88,32 L96,32 L96,80 L64,80 L64,56 Z M48,200 L48,208 L16,208 L16,192 L48.64,192 C48.237,194.648 48.023,197.322 48,200 Z M128,144 L104,144 C82.397,144.029 62.738,156.482 53.48,176 L15.9998862,176 L16,131.776 C15.972,122.679 21.115,114.356 29.264,110.312 L57.888,96 L104,96 C108.418,96 112,92.418 112,88 L112,32 L128,32 L128,144 Z" id="Shape" fill-rule="nonzero"></path>
            <path d="M112,176 C94.327,176 80,190.327 80,208 C80,225.673 94.327,240 112,240 C129.673,240 144,225.673 144,208 C144,190.327 129.673,176 112,176 Z M112,224 C103.163,224 96,216.837 96,208 C96,199.163 103.163,192 112,192 C120.837,192 128,199.163 128,208 C128,216.837 120.837,224 112,224 Z" id="Shape" fill-rule="nonzero"></path>
            <path d="M464,176 C446.375,176 432.082,190.25 432.004,207.856 C431.994,202.424 430.606,196.922 427.68,191.888 C421.95,182.032 411.401,175.977 400.001,176 L256,176 C239.001,175.915 225.039,189.101 223.919,205.834 C222.804,189.172 208.944,176 192,176 C174.327,176 160,190.327 160,208 C160,225.673 174.327,240 192,240 C208.95,240 222.814,226.818 223.92,210.148 C225.021,226.748 238.783,239.914 255.679,239.999 C267.169,240.057 277.807,233.95 283.552,224 L372.448,224 C381.316,239.252 400.868,244.427 416.12,235.56 C426.228,229.683 431.904,219.113 432.006,208.212 C432.12,225.787 446.398,240 464,240 C481.673,240 496,225.673 496,208 C496,190.327 481.673,176 464,176 Z M192,224 C183.163,224 176,216.837 176,208 C176,199.163 183.163,192 192,192 C200.837,192 208,199.163 208,208 C208,216.837 200.837,224 192,224 Z M256,224 C247.163,224 240,216.837 240,208 C240,199.163 247.163,192 256,192 C264.837,192 272,199.163 272,208 C272,216.837 264.837,224 256,224 Z M368,208 L288,208 C287.967,202.366 286.431,196.843 283.552,192 L372.448,192 C369.569,196.843 368.033,202.366 368,208 Z M400,224 C391.163,224 384,216.837 384,208 C384,199.163 391.163,192 400,192 C408.837,192 416,199.163 416,208 C416,216.837 408.837,224 400,224 Z M464,224 C455.163,224 448,216.837 448,208 C448,199.163 455.163,192 464,192 C472.837,192 480,199.163 480,208 C480,216.837 472.837,224 464,224 Z" id="Shape" fill-rule="nonzero"></path>
            <rect id="Rectangle" x="80" y="112" width="32" height="16"></rect>
            <path d="M488,0 L168,0 C163.582,0 160,3.582 160,8 L160,152 C160,156.418 163.582,160 168,160 L488,160 C492.418,160 496,156.418 496,152 L496,8 C496,3.582 492.418,0 488,0 Z M192,144 L176,144 L176,128 L192,128 L192,144 Z M224,144 L208,144 L208,128 L224,128 L224,144 Z M256,144 L240,144 L240,128 L256,128 L256,144 Z M288,144 L272,144 L272,128 L288,128 L288,144 Z M320,144 L304,144 L304,128 L320,128 L320,144 Z M352,144 L336,144 L336,128 L352,128 L352,144 Z M384,144 L368,144 L368,128 L384,128 L384,144 Z M416,144 L400,144 L400,128 L416,128 L416,144 Z M448,144 L432,144 L432,128 L448,128 L448,144 Z M480,144 L464,144 L464,128 L480,128 L480,144 Z M480,112 L176,112 L176,16 L480,16 L480,112 Z" id="Shape" fill-rule="nonzero"></path>
        </g>
    </g>
</svg>